<svg width="20" height="19" viewBox="0 0 20 19" fill="none" xmlns="http://www.w3.org/2000/svg">
<path d="M0 1.35714C0 0.997206 0.140476 0.652012 0.390524 0.397498C0.640573 0.142984 0.979711 0 1.33333 0H16C16.3536 0 16.6928 0.142984 16.9428 0.397498C17.1929 0.652012 17.3333 0.997206 17.3333 1.35714V2.71429H18C18.5304 2.71429 19.0391 2.92876 19.4142 3.31053C19.7893 3.6923 20 4.21009 20 4.75V14.25C20 14.7899 19.7893 15.3077 19.4142 15.6895C19.0391 16.0712 18.5304 16.2857 18 16.2857H17.2667C17.113 17.0521 16.7039 17.7408 16.1086 18.2355C15.5133 18.7301 14.7684 19.0002 14 19H3.33333C2.44928 19 1.60143 18.6425 0.976311 18.0063C0.351189 17.37 0 16.507 0 15.6071V1.35714ZM17.3333 14.9286H18C18.1768 14.9286 18.3464 14.8571 18.4714 14.7298C18.5964 14.6026 18.6667 14.43 18.6667 14.25V4.75C18.6667 4.57003 18.5964 4.39743 18.4714 4.27018C18.3464 4.14292 18.1768 4.07143 18 4.07143H17.3333V14.9286Z" fill="#63C5E3"/>
</svg>
